# xmcd CD database file
#
# Track frame offsets:
#	150
#	12082
#	24311
#	37489
#	52212
#	68249
#	81358
#	96037
#	112539
#	126808
#	136745
#	147365
#	162391
#	181966
#
# Disc length: 2593 seconds
#
# Revision: 0
# Processed by: cddbd v1.5.2PL0 Copyright (c) Steve Scherf et al.
# Submitted via: CDex 1.51
#
DISCID=bc0a1f0e
DTITLE=Gary Bennett - My Ol' Guitar
DYEAR=2010
DGENRE=Country
TTITLE0=Even If It's Wrong
TTITLE1=Head Over Heels Again
TTITLE2=I Ain't Gonna Do It Anymore
TTITLE3=Five Years In One
TTITLE4=Life Ain't Killed Me Yet
TTITLE5=You Are Never Nice To Me
TTITLE6=A Cold Day In Hell
TTITLE7=Don't Leave Me Hangin'
TTITLE8=Storybook Endings
TTITLE9=While You Were Gone
TTITLE10=Pain Pain Go Away
TTITLE11=The Game
TTITLE12=It Ain't Easy Bein' In My Head
TTITLE13=My Ol' Guitar
EXTD=YEAR: 2010
EXTT0=
EXTT1=
EXTT2=
EXTT3=
EXTT4=
EXTT5=
EXTT6=
EXTT7=
EXTT8=
EXTT9=
EXTT10=
EXTT11=
EXTT12=
EXTT13=
PLAYORDER=
